<?xml version="1.0" encoding="utf-8"?>
<!-- Generator: Adobe Illustrator 22.0.0, SVG Export Plug-In . SVG Version: 6.00 Build 0)  -->
<svg version="1.1" id="Layer_1" xmlns="http://www.w3.org/2000/svg" xmlns:xlink="http://www.w3.org/1999/xlink" x="0px" y="0px"
	 viewBox="0 0 962.8 135.8" style="enable-background:new 0 0 962.8 135.8;" xml:space="preserve">
<style type="text/css">
	.st0{fill:#FFFFFF;}
	.st1{fill:none;stroke:#FFFFFF;stroke-width:3;stroke-linecap:round;stroke-linejoin:round;stroke-miterlimit:10;}
	.st2{fill:none;stroke:#FFFFFF;stroke-miterlimit:10;}
</style>
<g>
	<rect x="424.9" y="14.9" class="st0" width="3.2" height="110.4"/>
	<g>
		<g>
			<g>
				<g>
					<path class="st0" d="M599.6,97.5c-2.9,0-5.4-2.5-5.4-5.4V20.4c0-2.9,2.4-5.4,5.3-5.4h17c2.8,0,6.1,2.7,7.9,5.4l34.8,53.5V20.3
						c0-2.9,2.5-5.3,5.4-5.3h9.9c3.1,0,5.4,2.4,5.4,5.4v71.7c0,2.9-2.4,5.4-5.4,5.4h-19.1c-3.1,0-6.5-2.5-8.4-5.4l-31.8-49.4v49.4
						c0,2.9-2.5,5.4-5.4,5.4H599.6z"/>
					<path class="st0" d="M773.6,20.4v5.4c0,3.1-2.5,5.4-5.4,5.4h-50.1V48h43.2c2.9,0,5.4,2.5,5.4,5.4v5.4c0,2.9-2.5,5.4-5.4,5.4
						h-43.2v17h50c2.9,0,5.3,2.4,5.3,5.3V92c0,2.9-2.4,5.4-5.4,5.4h-66.1c-3.1,0-5.4-2.5-5.4-5.5V20.3c0-2.9,2.5-5.3,5.4-5.3h66.4
						C771.1,15,773.6,17.3,773.6,20.4z"/>
					<path class="st0" d="M820.2,40.5l15.8-20c2.2-2.8,5.3-5.4,10-5.4h12.4c3.1,0,4.2,2.6,2,5.4L833,55.1l29,37
						c2.2,2.8,1.1,5.4-2,5.4h-12.3c-4.7,0-7.8-2.6-10-5.4l-17.6-22.4l-17.6,22.4c-2.2,2.8-5.3,5.4-10,5.4h-12.3
						c-3.1,0-4.2-2.6-2-5.4l29-37L780,20.4c-2.2-2.8-1.1-5.4,2-5.4h12.4c4.7,0,7.8,2.6,10,5.4L820.2,40.5z"/>
					<path class="st0" d="M909.6,13.2c29.5,0,46.3,12.4,46.3,43s-16.9,43-46.3,43c-29.5,0-46.3-12.4-46.3-43S880.1,13.2,909.6,13.2z
						 M884.9,56.3c0,17.7,7,27.5,24.6,27.5c17.7,0,24.6-9.8,24.6-27.5s-7-27.5-24.6-27.5C891.9,28.8,884.9,38.6,884.9,56.3z"/>
				</g>
			</g>
		</g>
		<g>
			<g>
				<path class="st0" d="M546.9,46.6c0,0.8-0.6,1.8-1.3,2.2L528.1,59c-0.7,0.4-1.8,0.4-2.5,0L508,48.9c-0.7-0.4-1.3-1.4-1.3-2.2
					V26.4c0-0.8,0.6-1.8,1.3-2.2L525.5,14c0.7-0.4,1.8-0.4,2.5,0l17.6,10.1c0.7,0.4,1.3,1.4,1.3,2.2L546.9,46.6z"/>
			</g>
			<g>
				<path class="st0" d="M524.7,64.4c0-0.8-0.6-1.8-1.3-2.2l-17.6-10.1c-0.7-0.4-1.8-0.4-2.5,0l-17.6,10.2c-0.7,0.4-1.3,1.4-1.3,2.2
					v20.3c0,0.8,0.6,1.8,1.3,2.2l17.6,10.1c0.7,0.4,1.8,0.4,2.5,0l17.6-10.2c0.7-0.4,1.3-1.4,1.3-2.2V64.4z"/>
			</g>
			<g>
				<path class="st0" d="M569,64.4c0-0.8-0.6-1.8-1.3-2.2l-17.6-10.1c-0.7-0.4-1.8-0.4-2.5,0L530,62.3c-0.7,0.4-1.3,1.4-1.3,2.2
					v20.3c0,0.8,0.6,1.8,1.3,2.2l17.6,10.1c0.7,0.4,1.8,0.4,2.5,0l17.6-10.2c0.7-0.4,1.3-1.4,1.3-2.2L569,64.4z M564.6,84.9
					L550,93.4c-0.6,0.3-1.5,0.3-2.1,0L533.2,85c-0.6-0.3-1.1-1.2-1.1-1.8V66.3c0-0.7,0.5-1.5,1.1-1.8l14.7-8.5
					c0.6-0.3,1.5-0.3,2.1,0l14.7,8.4c0.6,0.3,1.1,1.2,1.1,1.8v16.9C565.7,83.7,565.2,84.6,564.6,84.9z"/>
			</g>
			<g>
				<path class="st1" d="M576.8,18.7l-4.9-2.8c-0.6-0.4-1.7-0.4-2.3,0l-16.1,9.3c-0.6,0.4-1.2,1.3-1.2,2v18.6c0,0.7,0.5,1.6,1.2,2
					l16.1,9.3"/>
			</g>
			<g>
				<path class="st1" d="M488.6,18.7l11.3,6.5c0.6,0.4,1.2,1.3,1.2,2v18.6c0,0.7-0.5,1.6-1.2,2l-16.1,9.3c-0.6,0.4-1.7,0.4-2.3,0
					l-9.3-5.3l-6.8-3.9"/>
			</g>
		</g>
		<g>
			<path class="st0" d="M638.6,123.2c0.1,0.7,0.4,1.2,0.9,1.6s1,0.7,1.7,0.7c0.6,0,1-0.1,1.4-0.3c0.4-0.2,0.6-0.5,0.8-0.8
				c0.2-0.4,0.4-0.8,0.4-1.3c0.1-0.5,0.1-1,0.1-1.5v-12.7h2.6v12.8c0,0.6-0.1,1.3-0.2,2c-0.1,0.7-0.4,1.4-0.8,2
				c-0.4,0.6-0.9,1.1-1.6,1.5c-0.7,0.4-1.6,0.6-2.6,0.6c-1.4,0-2.6-0.4-3.4-1.1c-0.9-0.7-1.5-1.7-1.7-2.8L638.6,123.2z"/>
			<path class="st0" d="M659.3,127.4c0-0.3-0.1-0.7-0.1-1.1s0-0.7,0-1h-0.1c-0.3,0.7-0.8,1.2-1.6,1.7c-0.7,0.5-1.6,0.7-2.5,0.7
				c-0.8,0-1.5-0.1-2.1-0.4s-1.1-0.6-1.4-1.1c-0.4-0.5-0.7-1-0.8-1.6c-0.2-0.6-0.3-1.3-0.3-2V115h2.4v6.8c0,0.5,0,1,0.1,1.4
				c0.1,0.5,0.2,0.9,0.4,1.2c0.2,0.3,0.5,0.6,0.9,0.8c0.4,0.2,0.8,0.3,1.4,0.3c1,0,1.8-0.4,2.4-1.1c0.6-0.7,0.9-1.7,0.9-3V115h2.4
				v9.7c0,0.3,0,0.8,0,1.3s0,1,0.1,1.4H659.3z"/>
			<path class="st0" d="M667.7,115c0,0.3,0.1,0.7,0.1,1.1s0,0.7,0,1h0.1c0.2-0.3,0.4-0.6,0.6-0.9c0.3-0.3,0.6-0.5,0.9-0.8
				c0.3-0.2,0.7-0.4,1.1-0.5c0.4-0.1,0.9-0.2,1.3-0.2c0.8,0,1.5,0.1,2.1,0.4s1,0.6,1.4,1.1s0.7,1,0.8,1.6c0.2,0.6,0.3,1.3,0.3,2v7.7
				H674v-6.8c0-0.5,0-1-0.1-1.4c-0.1-0.5-0.2-0.9-0.4-1.2c-0.2-0.3-0.5-0.6-0.9-0.8c-0.4-0.2-0.8-0.3-1.4-0.3c-1,0-1.8,0.4-2.4,1.1
				c-0.6,0.7-0.9,1.7-0.9,3v6.6h-2.4V118c0-0.3,0-0.8,0-1.3s0-1-0.1-1.4h2.3L667.7,115L667.7,115z"/>
			<path class="st0" d="M686.4,117h-3.3v6.4c0,0.7,0.1,1.3,0.4,1.6c0.3,0.3,0.7,0.5,1.3,0.5c0.2,0,0.5,0,0.7-0.1
				c0.3,0,0.5-0.1,0.7-0.2l0.1,2c-0.3,0.1-0.6,0.2-1,0.2c-0.4,0.1-0.7,0.1-1.1,0.1c-1.2,0-2.1-0.3-2.7-1c-0.6-0.6-0.9-1.6-0.9-2.9
				V117h-2.4v-2h2.4v-3.5h2.4v3.5h3.3L686.4,117L686.4,117z"/>
			<path class="st0" d="M701.2,121.2c0,1-0.2,1.8-0.5,2.6c-0.3,0.8-0.8,1.5-1.4,2.1c-0.6,0.6-1.3,1-2.1,1.4
				c-0.8,0.3-1.7,0.5-2.6,0.5c-0.9,0-1.8-0.2-2.6-0.5s-1.5-0.8-2.1-1.4s-1.1-1.3-1.4-2.1c-0.3-0.8-0.5-1.7-0.5-2.6
				c0-1,0.2-1.8,0.5-2.6c0.3-0.8,0.8-1.5,1.4-2c0.6-0.6,1.3-1,2.1-1.3s1.7-0.5,2.6-0.5c0.9,0,1.8,0.2,2.6,0.5s1.5,0.8,2.1,1.3
				c0.6,0.6,1.1,1.3,1.4,2C701,119.3,701.2,120.2,701.2,121.2z M698.6,121.2c0-0.6-0.1-1.2-0.3-1.7s-0.4-1-0.8-1.4
				c-0.3-0.4-0.8-0.7-1.3-1c-0.5-0.2-1.1-0.4-1.8-0.4s-1.2,0.1-1.8,0.4c-0.5,0.2-0.9,0.6-1.3,1c-0.3,0.4-0.6,0.9-0.8,1.4
				s-0.3,1.1-0.3,1.7s0.1,1.2,0.3,1.7s0.4,1,0.8,1.4c0.3,0.4,0.8,0.7,1.3,1c0.5,0.2,1.1,0.4,1.8,0.4s1.3-0.1,1.8-0.4
				c0.5-0.2,0.9-0.6,1.3-1c0.3-0.4,0.6-0.9,0.8-1.4C698.5,122.3,698.6,121.8,698.6,121.2z"/>
			<path class="st0" d="M711,118.1c-0.3-0.5-0.7-0.8-1.2-1.1c-0.5-0.3-1.1-0.4-1.7-0.4c-0.3,0-0.6,0-0.8,0.1
				c-0.3,0.1-0.5,0.2-0.7,0.3c-0.2,0.1-0.4,0.3-0.5,0.5s-0.2,0.4-0.2,0.7c0,0.5,0.2,0.9,0.7,1.2c0.5,0.3,1.2,0.5,2.1,0.7
				c0.6,0.1,1.1,0.3,1.6,0.5s0.9,0.4,1.3,0.7c0.4,0.3,0.7,0.6,0.9,1s0.3,0.9,0.3,1.4c0,0.7-0.1,1.3-0.4,1.8
				c-0.3,0.5-0.6,0.9-1.1,1.2c-0.5,0.3-1,0.6-1.6,0.7s-1.2,0.2-1.8,0.2c-0.9,0-1.9-0.2-2.7-0.5c-0.9-0.4-1.6-0.9-2.2-1.7l1.7-1.5
				c0.3,0.5,0.8,0.9,1.4,1.2c0.6,0.3,1.2,0.5,1.9,0.5c0.3,0,0.6,0,0.9-0.1c0.3-0.1,0.5-0.2,0.8-0.3c0.2-0.1,0.4-0.3,0.6-0.5
				c0.1-0.2,0.2-0.5,0.2-0.9c0-0.6-0.3-1-0.8-1.3s-1.4-0.5-2.4-0.8c-0.4-0.1-0.8-0.2-1.3-0.4c-0.4-0.1-0.8-0.4-1.2-0.6
				c-0.3-0.3-0.6-0.6-0.8-1s-0.3-0.9-0.3-1.4c0-0.7,0.1-1.2,0.4-1.7c0.3-0.5,0.6-0.9,1.1-1.2c0.4-0.3,0.9-0.5,1.5-0.7
				c0.6-0.1,1.1-0.2,1.7-0.2c0.9,0,1.7,0.2,2.6,0.5c0.8,0.3,1.5,0.9,1.9,1.5L711,118.1z"/>
			<path class="st0" d="M724.3,133.6h-2.4V115h2.4v1.9h0.1c0.4-0.7,1-1.2,1.8-1.6s1.7-0.6,2.7-0.6c0.9,0,1.8,0.2,2.5,0.5
				c0.8,0.3,1.4,0.8,1.9,1.4s1,1.3,1.3,2.1c0.3,0.8,0.4,1.6,0.4,2.5s-0.1,1.8-0.4,2.6c-0.3,0.8-0.7,1.5-1.2,2.1s-1.2,1.1-1.9,1.4
				c-0.8,0.3-1.6,0.5-2.6,0.5c-0.9,0-1.7-0.2-2.5-0.6s-1.4-0.9-1.8-1.6h-0.1v8H724.3z M732.4,121.2c0-0.6-0.1-1.1-0.3-1.7
				c-0.2-0.5-0.4-1-0.8-1.4c-0.3-0.4-0.8-0.7-1.3-1c-0.5-0.2-1.1-0.4-1.8-0.4c-0.6,0-1.2,0.1-1.7,0.4c-0.5,0.2-1,0.6-1.3,1
				c-0.4,0.4-0.6,0.9-0.8,1.4s-0.3,1.1-0.3,1.7s0.1,1.2,0.3,1.7s0.5,1,0.8,1.4c0.4,0.4,0.8,0.7,1.3,1c0.5,0.2,1.1,0.4,1.7,0.4
				c0.7,0,1.3-0.1,1.8-0.4s0.9-0.6,1.3-1c0.3-0.4,0.6-0.9,0.8-1.4C732.3,122.3,732.4,121.7,732.4,121.2z"/>
			<path class="st0" d="M745.8,119.4c0-0.9-0.3-1.6-0.8-2c-0.6-0.4-1.3-0.7-2.2-0.7c-0.7,0-1.4,0.1-2,0.4s-1.1,0.6-1.5,1l-1.3-1.6
				c0.6-0.6,1.3-1,2.2-1.4c0.9-0.3,1.8-0.5,2.8-0.5c0.9,0,1.7,0.1,2.3,0.4c0.7,0.3,1.2,0.6,1.6,1c0.4,0.4,0.7,0.9,0.9,1.5
				s0.3,1.2,0.3,1.9v5.4c0,0.4,0,0.9,0,1.3c0,0.5,0.1,0.8,0.1,1.1H746c-0.1-0.6-0.2-1.2-0.2-1.8h-0.1c-0.5,0.7-1,1.2-1.7,1.5
				c-0.7,0.4-1.5,0.5-2.4,0.5c-0.5,0-1-0.1-1.5-0.2s-1-0.3-1.4-0.6c-0.4-0.3-0.8-0.7-1.1-1.2s-0.4-1.1-0.4-1.8
				c0-0.9,0.3-1.7,0.8-2.2s1.2-1,2-1.2c0.8-0.3,1.7-0.5,2.8-0.6c1-0.1,2.1-0.1,3.1-0.1L745.8,119.4L745.8,119.4z M745.2,121.5
				c-0.6,0-1.2,0-1.9,0.1s-1.2,0.2-1.8,0.3c-0.5,0.2-1,0.4-1.3,0.7c-0.3,0.3-0.5,0.7-0.5,1.2c0,0.4,0.1,0.7,0.2,0.9
				c0.1,0.2,0.3,0.4,0.6,0.6c0.2,0.2,0.5,0.3,0.8,0.3c0.3,0.1,0.6,0.1,0.9,0.1c1.1,0,2-0.3,2.6-1s0.9-1.5,0.9-2.6v-0.7L745.2,121.5
				L745.2,121.5z"/>
			<path class="st0" d="M751.9,116.4c0-0.5,0-1-0.1-1.4h2.3c0,0.3,0.1,0.7,0.1,1.1s0,0.7,0,1h0.1c0.3-0.7,0.9-1.3,1.5-1.8
				c0.7-0.4,1.4-0.7,2.3-0.7c0.4,0,0.7,0,1,0.1L759,117c-0.3-0.1-0.7-0.1-1.1-0.1c-0.6,0-1.1,0.1-1.5,0.3c-0.4,0.2-0.8,0.5-1.1,0.9
				s-0.5,0.8-0.6,1.3s-0.2,1-0.2,1.5v6.5h-2.4v-9.7C751.9,117.3,751.9,116.9,751.9,116.4z"/>
			<path class="st0" d="M768.5,119.4c0-0.9-0.3-1.6-0.8-2c-0.6-0.4-1.3-0.7-2.2-0.7c-0.7,0-1.4,0.1-2,0.4s-1.1,0.6-1.5,1l-1.3-1.6
				c0.6-0.6,1.3-1,2.2-1.4c0.9-0.3,1.8-0.5,2.8-0.5c0.9,0,1.7,0.1,2.3,0.4c0.7,0.3,1.2,0.6,1.6,1c0.4,0.4,0.7,0.9,0.9,1.5
				s0.3,1.2,0.3,1.9v5.4c0,0.4,0,0.9,0,1.3c0,0.5,0.1,0.8,0.1,1.1h-2.2c-0.1-0.6-0.2-1.2-0.2-1.8h-0.1c-0.5,0.7-1,1.2-1.7,1.5
				c-0.7,0.4-1.5,0.5-2.4,0.5c-0.5,0-1-0.1-1.5-0.2s-1-0.3-1.4-0.6c-0.4-0.3-0.8-0.7-1.1-1.2s-0.4-1.1-0.4-1.8
				c0-0.9,0.3-1.7,0.8-2.2s1.2-1,2-1.2c0.8-0.3,1.7-0.5,2.8-0.6c1-0.1,2.1-0.1,3.1-0.1L768.5,119.4L768.5,119.4z M767.9,121.5
				c-0.6,0-1.2,0-1.9,0.1s-1.2,0.2-1.8,0.3c-0.5,0.2-1,0.4-1.3,0.7c-0.3,0.3-0.5,0.7-0.5,1.2c0,0.4,0.1,0.7,0.2,0.9
				c0.1,0.2,0.3,0.4,0.6,0.6c0.2,0.2,0.5,0.3,0.8,0.3c0.3,0.1,0.6,0.1,0.9,0.1c1.1,0,2-0.3,2.6-1s0.9-1.5,0.9-2.6v-0.7L767.9,121.5
				L767.9,121.5z"/>
			<path class="st0" d="M787.5,118.1c-0.3-0.5-0.7-0.8-1.2-1.1c-0.5-0.3-1.1-0.4-1.7-0.4c-0.3,0-0.6,0-0.8,0.1
				c-0.3,0.1-0.5,0.2-0.7,0.3c-0.2,0.1-0.4,0.3-0.5,0.5s-0.2,0.4-0.2,0.7c0,0.5,0.2,0.9,0.7,1.2c0.5,0.3,1.2,0.5,2.1,0.7
				c0.6,0.1,1.1,0.3,1.6,0.5s0.9,0.4,1.3,0.7c0.4,0.3,0.7,0.6,0.9,1s0.3,0.9,0.3,1.4c0,0.7-0.1,1.3-0.4,1.8
				c-0.3,0.5-0.6,0.9-1.1,1.2c-0.5,0.3-1,0.6-1.6,0.7s-1.2,0.2-1.8,0.2c-0.9,0-1.9-0.2-2.7-0.5c-0.9-0.4-1.6-0.9-2.2-1.7l1.7-1.5
				c0.3,0.5,0.8,0.9,1.4,1.2c0.6,0.3,1.2,0.5,1.9,0.5c0.3,0,0.6,0,0.9-0.1c0.3-0.1,0.5-0.2,0.8-0.3c0.2-0.1,0.4-0.3,0.6-0.5
				c0.1-0.2,0.2-0.5,0.2-0.9c0-0.6-0.3-1-0.8-1.3s-1.4-0.5-2.4-0.8c-0.4-0.1-0.8-0.2-1.3-0.4c-0.4-0.1-0.8-0.4-1.2-0.6
				c-0.3-0.3-0.6-0.6-0.8-1s-0.3-0.9-0.3-1.4c0-0.7,0.1-1.2,0.4-1.7c0.3-0.5,0.6-0.9,1.1-1.2c0.4-0.3,0.9-0.5,1.5-0.7
				c0.6-0.1,1.1-0.2,1.7-0.2c0.9,0,1.7,0.2,2.6,0.5c0.8,0.3,1.5,0.9,1.9,1.5L787.5,118.1z"/>
			<path class="st0" d="M803.7,121.1c0,0.1,0,0.3,0,0.4s0,0.3,0,0.4h-9.8c0,0.5,0.1,1,0.4,1.5c0.2,0.5,0.5,0.9,0.9,1.2
				c0.4,0.3,0.8,0.6,1.3,0.8c0.5,0.2,1,0.3,1.5,0.3c0.8,0,1.6-0.2,2.2-0.5c0.6-0.4,1.1-0.8,1.4-1.3l1.7,1.4
				c-0.7,0.9-1.4,1.5-2.3,1.9c-0.9,0.4-1.9,0.6-3,0.6c-0.9,0-1.8-0.2-2.6-0.5s-1.5-0.8-2.1-1.3c-0.6-0.6-1-1.2-1.4-2
				c-0.3-0.8-0.5-1.7-0.5-2.7s0.2-1.8,0.5-2.6c0.3-0.8,0.8-1.5,1.3-2.1c0.6-0.6,1.3-1,2-1.3c0.8-0.3,1.6-0.5,2.5-0.5
				s1.7,0.1,2.5,0.4c0.7,0.3,1.4,0.7,1.9,1.3c0.5,0.6,0.9,1.2,1.2,2C803.6,119.2,803.7,120.1,803.7,121.1z M801.2,120.1
				c0-0.5-0.1-0.9-0.2-1.4c-0.1-0.4-0.4-0.8-0.7-1.1c-0.3-0.3-0.6-0.6-1.1-0.7c-0.4-0.2-0.9-0.3-1.5-0.3c-0.5,0-1,0.1-1.5,0.3
				c-0.5,0.2-0.9,0.4-1.2,0.7c-0.3,0.3-0.6,0.7-0.8,1.1s-0.3,0.9-0.4,1.4H801.2z"/>
			<path class="st0" d="M806.8,116.4c0-0.5,0-1-0.1-1.4h2.3c0,0.3,0.1,0.7,0.1,1.1s0,0.7,0,1h0.1c0.3-0.7,0.9-1.3,1.5-1.8
				c0.7-0.4,1.4-0.7,2.3-0.7c0.4,0,0.7,0,1,0.1l-0.1,2.3c-0.3-0.1-0.7-0.1-1.1-0.1c-0.6,0-1.1,0.1-1.5,0.3c-0.4,0.2-0.8,0.5-1.1,0.9
				s-0.5,0.8-0.6,1.3s-0.2,1-0.2,1.5v6.5H807v-9.7C806.8,117.3,806.8,116.9,806.8,116.4z"/>
			<path class="st0" d="M826.2,115.4c0.7-0.5,1.5-0.7,2.4-0.7c0.8,0,1.6,0.2,2.3,0.6s1.2,1,1.6,1.9c0.4-0.8,1-1.4,1.7-1.8
				s1.6-0.6,2.4-0.6c0.8,0,1.5,0.1,2.1,0.4s1.1,0.6,1.4,1.1c0.4,0.5,0.7,1,0.8,1.6c0.2,0.6,0.3,1.3,0.3,2v7.7h-2.4v-6.8
				c0-0.5,0-1-0.1-1.4c-0.1-0.5-0.2-0.9-0.4-1.2c-0.2-0.3-0.5-0.6-0.8-0.8c-0.3-0.2-0.8-0.3-1.3-0.3c-0.6,0-1,0.1-1.4,0.4
				c-0.4,0.2-0.7,0.5-1,0.9s-0.4,0.8-0.5,1.3s-0.2,0.9-0.2,1.4v6.7h-2.4V120c0-0.5,0-0.9-0.1-1.3s-0.2-0.7-0.4-1s-0.5-0.5-0.8-0.7
				s-0.7-0.2-1.2-0.2c-0.9,0-1.7,0.4-2.3,1.1s-0.9,1.7-0.9,3v6.6h-2.4v-9.7c0-0.3,0-0.8,0-1.3s0-1-0.1-1.4h2.3
				c0,0.3,0.1,0.7,0.1,1.1s0,0.7,0,1h0.1C825,116.4,825.5,115.8,826.2,115.4z"/>
			<path class="st0" d="M856.6,121.1c0,0.1,0,0.3,0,0.4s0,0.3,0,0.4h-9.8c0,0.5,0.1,1,0.4,1.5c0.2,0.5,0.5,0.9,0.9,1.2
				c0.4,0.3,0.8,0.6,1.3,0.8c0.5,0.2,1,0.3,1.5,0.3c0.8,0,1.6-0.2,2.2-0.5c0.6-0.4,1.1-0.8,1.4-1.3l1.7,1.4
				c-0.7,0.9-1.4,1.5-2.3,1.9c-0.9,0.4-1.9,0.6-3,0.6c-0.9,0-1.8-0.2-2.6-0.5s-1.5-0.8-2.1-1.3c-0.6-0.6-1-1.2-1.4-2
				c-0.3-0.8-0.5-1.7-0.5-2.7s0.2-1.8,0.5-2.6c0.3-0.8,0.8-1.5,1.3-2.1c0.6-0.6,1.3-1,2-1.3c0.8-0.3,1.6-0.5,2.5-0.5
				s1.7,0.1,2.5,0.4c0.7,0.3,1.4,0.7,1.9,1.3c0.5,0.6,0.9,1.2,1.2,2C856.5,119.2,856.6,120.1,856.6,121.1z M854.1,120.1
				c0-0.5-0.1-0.9-0.2-1.4c-0.1-0.4-0.4-0.8-0.7-1.1c-0.3-0.3-0.6-0.6-1.1-0.7c-0.4-0.2-0.9-0.3-1.5-0.3c-0.5,0-1,0.1-1.5,0.3
				c-0.5,0.2-0.9,0.4-1.2,0.7c-0.3,0.3-0.6,0.7-0.8,1.1s-0.3,0.9-0.4,1.4H854.1z"/>
			<path class="st0" d="M857.1,131.4c0.3,0.1,0.7,0.1,1,0.1c0.4,0,0.7-0.1,0.9-0.2c0.2-0.1,0.4-0.3,0.5-0.6c0.1-0.2,0.2-0.5,0.2-0.8
				s0.1-0.7,0.1-1V115h2.4v13.9c0,0.6-0.1,1.2-0.2,1.8c-0.1,0.6-0.3,1-0.6,1.5c-0.3,0.4-0.7,0.8-1.2,1c-0.5,0.3-1.2,0.4-2,0.4
				c-0.2,0-0.5,0-0.7-0.1c-0.3,0-0.5-0.1-0.7-0.1L857.1,131.4z M862.7,110.6c0,0.5-0.2,0.8-0.5,1.1c-0.3,0.3-0.7,0.4-1.2,0.4
				s-0.8-0.2-1.2-0.5c-0.3-0.3-0.5-0.7-0.5-1.1c0-0.5,0.2-0.8,0.5-1.1c0.3-0.3,0.7-0.5,1.2-0.5s0.8,0.2,1.2,0.5
				C862.5,109.7,862.7,110.1,862.7,110.6z"/>
			<path class="st0" d="M878.8,121.2c0,1-0.2,1.8-0.5,2.6c-0.3,0.8-0.8,1.5-1.4,2.1c-0.6,0.6-1.3,1-2.1,1.4
				c-0.8,0.3-1.7,0.5-2.6,0.5c-0.9,0-1.8-0.2-2.6-0.5s-1.5-0.8-2.1-1.4s-1.1-1.3-1.4-2.1c-0.3-0.8-0.5-1.7-0.5-2.6
				c0-1,0.2-1.8,0.5-2.6c0.3-0.8,0.8-1.5,1.4-2c0.6-0.6,1.3-1,2.1-1.3s1.7-0.5,2.6-0.5c0.9,0,1.8,0.2,2.6,0.5s1.5,0.8,2.1,1.3
				c0.6,0.6,1.1,1.3,1.4,2C878.6,119.3,878.8,120.2,878.8,121.2z M876.2,121.2c0-0.6-0.1-1.2-0.3-1.7s-0.4-1-0.8-1.4
				c-0.3-0.4-0.8-0.7-1.3-1c-0.5-0.2-1.1-0.4-1.8-0.4s-1.2,0.1-1.8,0.4c-0.5,0.2-0.9,0.6-1.3,1c-0.3,0.4-0.6,0.9-0.8,1.4
				s-0.3,1.1-0.3,1.7s0.1,1.2,0.3,1.7s0.4,1,0.8,1.4c0.3,0.4,0.8,0.7,1.3,1c0.5,0.2,1.1,0.4,1.8,0.4s1.3-0.1,1.8-0.4
				c0.5-0.2,0.9-0.6,1.3-1c0.3-0.4,0.6-0.9,0.8-1.4C876.1,122.3,876.2,121.8,876.2,121.2z"/>
			<path class="st0" d="M881.9,116.4c0-0.5,0-1-0.1-1.4h2.3c0,0.3,0.1,0.7,0.1,1.1s0,0.7,0,1h0.1c0.3-0.7,0.9-1.3,1.5-1.8
				c0.7-0.4,1.4-0.7,2.3-0.7c0.4,0,0.7,0,1,0.1L889,117c-0.3-0.1-0.7-0.1-1.1-0.1c-0.6,0-1.1,0.1-1.5,0.3c-0.4,0.2-0.8,0.5-1.1,0.9
				s-0.5,0.8-0.6,1.3s-0.2,1-0.2,1.5v6.5h-2.4v-9.7C881.9,117.3,881.9,116.9,881.9,116.4z"/>
			<path class="st0" d="M902.1,121.1c0,0.1,0,0.3,0,0.4s0,0.3,0,0.4h-9.8c0,0.5,0.1,1,0.4,1.5c0.2,0.5,0.5,0.9,0.9,1.2
				c0.4,0.3,0.8,0.6,1.3,0.8c0.5,0.2,1,0.3,1.5,0.3c0.8,0,1.6-0.2,2.2-0.5c0.6-0.4,1.1-0.8,1.4-1.3l1.7,1.4
				c-0.7,0.9-1.4,1.5-2.3,1.9c-0.9,0.4-1.9,0.6-3,0.6c-0.9,0-1.8-0.2-2.6-0.5s-1.5-0.8-2.1-1.3c-0.6-0.6-1-1.2-1.4-2
				c-0.3-0.8-0.5-1.7-0.5-2.7s0.2-1.8,0.5-2.6c0.3-0.8,0.8-1.5,1.3-2.1c0.6-0.6,1.3-1,2-1.3c0.8-0.3,1.6-0.5,2.5-0.5
				s1.7,0.1,2.5,0.4c0.7,0.3,1.4,0.7,1.9,1.3c0.5,0.6,0.9,1.2,1.2,2C902,119.2,902.1,120.1,902.1,121.1z M899.6,120.1
				c0-0.5-0.1-0.9-0.2-1.4c-0.1-0.4-0.4-0.8-0.7-1.1c-0.3-0.3-0.6-0.6-1.1-0.7c-0.4-0.2-0.9-0.3-1.5-0.3c-0.5,0-1,0.1-1.5,0.3
				c-0.5,0.2-0.9,0.4-1.2,0.7c-0.3,0.3-0.6,0.7-0.8,1.1s-0.3,0.9-0.4,1.4H899.6z"/>
			<path class="st0" d="M911.9,118.1c-0.3-0.5-0.7-0.8-1.2-1.1c-0.5-0.3-1.1-0.4-1.7-0.4c-0.3,0-0.6,0-0.8,0.1
				c-0.3,0.1-0.5,0.2-0.7,0.3c-0.2,0.1-0.4,0.3-0.5,0.5s-0.2,0.4-0.2,0.7c0,0.5,0.2,0.9,0.7,1.2c0.5,0.3,1.2,0.5,2.1,0.7
				c0.6,0.1,1.1,0.3,1.6,0.5s0.9,0.4,1.3,0.7c0.4,0.3,0.7,0.6,0.9,1s0.3,0.9,0.3,1.4c0,0.7-0.1,1.3-0.4,1.8
				c-0.3,0.5-0.6,0.9-1.1,1.2c-0.5,0.3-1,0.6-1.6,0.7s-1.2,0.2-1.8,0.2c-0.9,0-1.9-0.2-2.7-0.5c-0.9-0.4-1.6-0.9-2.2-1.7l1.7-1.5
				c0.3,0.5,0.8,0.9,1.4,1.2c0.6,0.3,1.2,0.5,1.9,0.5c0.3,0,0.6,0,0.9-0.1c0.3-0.1,0.5-0.2,0.8-0.3c0.2-0.1,0.4-0.3,0.6-0.5
				c0.1-0.2,0.2-0.5,0.2-0.9c0-0.6-0.3-1-0.8-1.3s-1.4-0.5-2.4-0.8c-0.4-0.1-0.8-0.2-1.3-0.4c-0.4-0.1-0.8-0.4-1.2-0.6
				c-0.3-0.3-0.6-0.6-0.8-1s-0.3-0.9-0.3-1.4c0-0.7,0.1-1.2,0.4-1.7c0.3-0.5,0.6-0.9,1.1-1.2c0.4-0.3,0.9-0.5,1.5-0.7
				c0.6-0.1,1.1-0.2,1.7-0.2c0.9,0,1.7,0.2,2.6,0.5c0.8,0.3,1.5,0.9,1.9,1.5L911.9,118.1z"/>
		</g>
	</g>
	<g>
		<path class="st0" d="M51.6,18.4C87.3-4,124-3.8,135.9,22.7c10.8,24.1-7.8,65.5-42.4,90.2C62,134,26.6,133.2,12.1,111.8
			c-1.7,0.2-4.4-0.7-4.6-4.3c0-1.8,0-3.5,0-5.7c-3.3-11.5-1.7-24.8,4-38c-2.5,0-4.1-1.8-4.2-4.6c0-2.2,0-4.2,0-5.9
			c0.1-2.9,2.4-6.2,5.4-7.3l12.5-4.3C32.3,32.9,41.2,25,51.6,18.4L51.6,18.4z M127,13.1c-0.6-4-3.7-4.4-6.2-3.5
			c-2.1,0.7-3.3,1.1-5.1,2.2c-2.7,2.1-3.2,4.7-3.4,5.9c0,12.8,0.2,44.4,0.2,54.2c-0.2,0.7,0.5,4.7,4.5,4.5c2-0.3,4.5-1.4,5.9-2
			c3.1-1.8,4.4-5,4.2-7.6C127.2,42,127.1,28.8,127,13.1L127,13.1z M95.1,18.5c-0.9,0.8-3.3,2.6-3.6,6.2c-0.1,0.8,0.1,19.8,0.2,32.4
			c0.3,3.6,3.5,4.2,4.9,3.9c2.8-0.9,3.3-1.1,4.9-1.7c3.3-1.9,4.5-4.5,4.7-6.7c0.3-0.5-0.1-27.2-0.2-33c-0.2-1.6-1.6-4.2-5.3-3.5
			C98.9,16.9,96.2,17.6,95.1,18.5L95.1,18.5z M85.1,26.6c0-1.1-1.1-4.5-5.2-3.7c-1.5,0.5-3.1,1.1-4.8,1.7c-3.3,1.7-4.4,4.8-4.6,6.8
			l0.2,54c0.2,4.2,3.5,4.8,5.3,4.3c1.8-0.6,3.5-1.1,5.4-2c2.3-1.3,3.5-3.7,4-6.2C85.4,63.3,85.2,46.9,85.1,26.6L85.1,26.6z
			 M12.3,94.2c-3.2,1.4-4.8,4.7-4.9,7.5c0,2.2,0,4.2,0.1,5.5c0,2.6,1.8,4.6,4.6,4.5c21.5-6.9,42-14.7,43.8-15
			c3.9-1.7,4.7-4.7,5.2-6.2c0.3-1.2,0.1-6.3,0.1-7.6c0-0.6-1.1-5.5-6.5-3.4C45,82.8,30.2,88,12.3,94.2L12.3,94.2z M12.2,70.1
			c-1.9,1-4.2,2.5-4.9,6.7c0,2.1-0.1,4.8,0.1,7.2c0.9,4.4,4.8,3.6,5.9,3.4l24.1-8.3c4.2-1.5,5.5-4.6,5.9-6.8c0.1-1.2,0-4,0-6.2
			c0.1-3.7-2.5-5.9-6.3-4.5C30.4,63.7,21.8,66.9,12.2,70.1L12.2,70.1z M54.1,31.6C40.3,36.4,26.4,41.2,12.6,46
			c-3.8,1.7-5.1,5.1-5.3,7.3c-0.1,0.9,0,4.9,0,5.9c0.2,3.1,2.3,5.1,5.4,4.4l43.1-14.9c3-1.2,4.8-3.9,5.2-6.6c0-2.4,0-3.9,0-6.6
			C60.6,30.4,56.5,30.5,54.1,31.6z"/>
		<path class="st2" d="M56.8,31c2.5,0,4.2,1.8,4.2,4.5v5.8c0,3.1-2.4,6.4-5.3,7.5L13.2,63.4c-0.6,0.2-1.2,0.3-1.7,0.3
			c-2.5,0-4.2-1.8-4.2-4.5v-5.8c0-3.1,2.4-6.4,5.3-7.5l42.6-14.7C55.7,31.1,56.3,31,56.8,31z"/>
		<path class="st2" d="M57,79c2.5,0,4.2,1.8,4.2,4.5v5.8c0,3.1-2.4,6.4-5.3,7.5l-42.6,14.8c-0.6,0.2-1.2,0.3-1.7,0.3
			c-2.5,0-4.2-1.8-4.2-4.5v-5.8c0-3.1,2.4-6.4,5.3-7.5l42.6-14.8C55.9,79.1,56.5,79,57,79z"/>
		<path class="st2" d="M39,61.2c2.5,0,4.2,1.8,4.2,4.5v5.8c0,3.1-2.4,6.4-5.3,7.4l-24.7,8.5c-0.6,0.2-1.2,0.3-1.7,0.3
			c-2.5,0-4.2-1.8-4.2-4.5v-5.8c0-3.1,2.4-6.4,5.3-7.4l24.7-8.5C37.9,61.3,38.5,61.2,39,61.2z"/>
	</g>
</g>
<g>
	<path class="st0" d="M262.4,80.4c-13.3,0-20.2-5.6-20.2-16.6c0-11.1,6.6-16.6,20.2-16.6h5.8c7.9,0,15.8,3.6,15.8,10.4
		c0,2.4-2.2,3.2-3.5,3.2h-3.1c-2,0-3.4-0.9-4.5-2.8c-1.1-2-3-3-5.6-3h-4.7c-7.1,0-8.9,1.8-8.9,8.8c0,6.9,1.8,8.8,8.9,8.8h5.2
		c2.6,0,4.6-1,5.6-3c1.1-1.9,2.5-2.8,4.5-2.8h3.1c1.3,0,3.5,0.9,3.5,3.2c0,6.8-8,10.4-15.8,10.4H262.4L262.4,80.4z M374.1,80.3
		c-1.8,0-3.3-1.3-3.3-2.8v-27c0-1.6,1.5-2.9,3.3-2.9h4.8c1.8,0,3.3,1.2,3.3,2.9v27c0,1.6-1.5,2.9-3.3,2.9L374.1,80.3L374.1,80.3z
		 M335.2,80.3c-1.8,0-3.3-1.3-3.3-2.8v-27c0-1.7,1.5-3,3.3-3h4.9c1.8,0,3.3,1.3,3.3,3v22h21.8c1.8,0,3.3,1.3,3.3,2.9v2
		c0,1.6-1.5,2.9-3.3,2.9H335.2L335.2,80.3z M318.2,80.3c-1.8,0-3.3-1.2-3.3-2.9v-4.7h-17l-1.6,4.9c-0.5,1.5-2.2,2.6-3.9,2.6h-5.1
		c-1.1,0-1.8-0.4-2.4-1.1c-0.4-0.6-0.5-1.3-0.3-2.1l6.6-20.6c1.9-6.1,7.8-9,18.1-9h14c1.7,0,3.1,1.3,3.1,2.9v27.1
		c0,1.6-1.5,2.8-3.3,2.8L318.2,80.3L318.2,80.3z M314.9,64.9v-9.7h-6.6c-3,0-5.4,1.4-6.1,3.8l-1.9,5.9H314.9z M231,80.3
		c-1.8,0-3.3-1.3-3.3-2.9V59.5l-7.2,13.2c-0.6,1.3-2.3,2.4-3.9,2.4h-3.8c-1.7,0-3.3-1.1-3.9-2.5L201,59.2v18.1
		c0,1.7-1.5,2.9-3.3,2.9H193c-1.8,0-3.3-1.3-3.3-2.9V50.4c0-1.6,1.5-3,3.2-3h10.6c1.7,0,3.3,1.1,3.9,2.6l7.2,11.9l6.7-12.1
		c0.5-1.4,2.2-2.5,3.9-2.5h10.6c1.8,0,3.2,1.3,3.2,3v26.9c0,1.7-1.5,2.9-3.3,2.9L231,80.3L231,80.3z M153.6,80.3
		c-1.8,0-3.3-1.3-3.3-2.9v-27c0-1.6,1.5-2.9,3.3-2.9h30c1.8,0,3.3,1.3,3.3,2.9v2c0,1.6-1.5,2.9-3.3,2.9h-21.8v4.6h16
		c1.8,0,3.3,1.3,3.3,2.9v2c0,1.6-1.5,2.9-3.3,2.9h-16v4.7h21.8c1.8,0,3.2,1.2,3.2,2.9v2.1c0,1.6-1.5,2.9-3.3,2.9H153.6L153.6,80.3z"
		/>
	<g>
		<g>
			<g>
				<path class="st0" d="M150.6,88c-0.1-0.2,0-0.3,0.2-0.3h0.5c0.1,0,0.2,0.1,0.2,0.1l4.6,10.6l0,0l4.7-10.6c0-0.1,0.1-0.1,0.2-0.1
					h0.4c0.2,0,0.3,0.1,0.2,0.3l-5.3,11.7c0,0.1-0.1,0.2-0.2,0.2H156c-0.1,0-0.2-0.1-0.2-0.2L150.6,88z"/>
			</g>
			<g>
				<path class="st0" d="M162.1,99.5l5.3-11.8c0-0.1,0.1-0.1,0.2-0.1h0.1c0.1,0,0.2,0,0.3,0.1l5.2,11.8c0,0.1,0,0.2-0.2,0.2h-0.4
					c-0.1,0-0.2-0.1-0.3-0.2l-1.4-3.2h-6.5l-1.3,3.2c0,0.1-0.1,0.2-0.3,0.2h-0.5C162.1,99.7,162.1,99.6,162.1,99.5z M170.6,95.8
					l-2.9-6.8l0,0l-3,6.8H170.6z"/>
			</g>
			<g>
				<path class="st0" d="M176,88c0-0.1,0.1-0.3,0.3-0.3h0.3c0.1,0,0.2,0.1,0.2,0.3v11h5.5c0.2,0,0.3,0.1,0.3,0.3v0.3
					c0,0.1-0.1,0.2-0.3,0.2h-6c-0.1,0-0.3-0.1-0.3-0.3V88z"/>
			</g>
			<g>
				<path class="st0" d="M190.3,87.6c3.4,0,6.2,2.8,6.2,6.2c0,3.4-2.8,6.1-6.2,6.1s-6.2-2.7-6.2-6.1
					C184.1,90.4,186.9,87.6,190.3,87.6z M190.3,99.1c3,0,5.4-2.4,5.4-5.3s-2.4-5.4-5.4-5.4s-5.4,2.4-5.4,5.4
					C184.9,96.8,187.3,99.1,190.3,99.1z"/>
			</g>
			<g>
				<path class="st0" d="M200.2,88c0-0.1,0.1-0.3,0.3-0.3h4.3c2.1,0,3.8,1.6,3.8,3.7c0,1.8-1.2,3.1-2.8,3.6l2.5,4.4
					c0.1,0.2,0.1,0.3-0.1,0.3h-0.5c-0.1,0-0.2-0.1-0.3-0.2l-2.5-4.5c-0.3,0-0.4,0-0.7,0H201v4.4c0,0.1-0.1,0.3-0.3,0.3h-0.3
					c-0.1,0-0.3-0.1-0.3-0.3L200.2,88L200.2,88z M204.6,94.4c1.7,0,3-1.3,3-3c0-1.6-1.4-2.8-3-2.8H201v5.8H204.6z"/>
			</g>
			<g>
				<path class="st0" d="M210.3,99.5l5.3-11.8c0-0.1,0.1-0.1,0.2-0.1h0.1c0.1,0,0.2,0,0.3,0.1l5.2,11.8c0,0.1,0,0.2-0.2,0.2h-0.4
					c-0.1,0-0.2-0.1-0.3-0.2l-1.4-3.2h-6.5l-1.3,3.2c0,0.1-0.1,0.2-0.3,0.2h-0.5C210.3,99.7,210.3,99.6,210.3,99.5z M218.8,95.8
					l-2.9-6.8l0,0l-3,6.8H218.8z"/>
			</g>
			<g>
				<path class="st0" d="M225.4,87.7c0-0.1,0.1-0.1,0.2-0.1h0.2c0.1,0,0.2,0,0.2,0.1l3.5,10.5l0,0l3.6-10.5c0-0.1,0.1-0.1,0.2-0.1
					h0.2c0.1,0,0.2,0.1,0.2,0.1l2.4,11.8c0,0.2,0,0.3-0.2,0.3h-0.4c-0.1,0-0.2-0.1-0.2-0.2l-1.9-10l0,0L230,99.8
					c0,0.1-0.2,0.2-0.3,0.2h-0.1c-0.1,0-0.2,0-0.3-0.2l-3.4-10.2l0,0l-1.9,10c0,0.1-0.1,0.2-0.2,0.2h-0.4c-0.2,0-0.3-0.1-0.2-0.3
					L225.4,87.7z"/>
			</g>
			<g>
				<path class="st0" d="M244.8,87.6c3.4,0,6.2,2.8,6.2,6.2c0,3.4-2.8,6.1-6.2,6.1s-6.2-2.7-6.2-6.1
					C238.6,90.4,241.3,87.6,244.8,87.6z M244.8,99.1c3,0,5.4-2.4,5.4-5.3s-2.4-5.4-5.4-5.4s-5.4,2.4-5.4,5.4
					C239.3,96.8,241.8,99.1,244.8,99.1z"/>
			</g>
			<g>
				<path class="st0" d="M254.2,98.1l0.2-0.2c0.1-0.2,0.3-0.2,0.3-0.1c0.2,0.2,1.4,1.3,3.2,1.3c1.6,0,2.8-1,2.8-2.3
					c0-1.5-1.3-2.2-3.3-2.9c-2-0.7-3.3-1.4-3.3-3.3c0-1.3,1-3,3.7-3c1.7,0,2.9,0.8,2.9,0.8c0.1,0.1,0.2,0.2,0.1,0.3
					c-0.1,0.1-0.1,0.2-0.2,0.3c-0.1,0.2-0.2,0.2-0.3,0.1c-0.1,0-1.2-0.8-2.5-0.8c-2.1,0-2.9,1.3-2.9,2.3c0,1.4,1.1,2.1,2.8,2.7
					c2.3,0.8,3.8,1.6,3.8,3.6c0,1.7-1.8,3-3.8,3s-3.4-1.2-3.6-1.4C254.1,98.4,254,98.3,254.2,98.1z"/>
			</g>
			<g>
				<path class="st0" d="M269.7,88c0-0.1,0.1-0.3,0.3-0.3h0.3c0.1,0,0.2,0.1,0.2,0.3v11h5.4c0.2,0,0.3,0.1,0.3,0.3v0.3
					c0,0.1-0.1,0.2-0.3,0.2h-6c-0.1,0-0.3-0.1-0.3-0.3L269.7,88L269.7,88z"/>
			</g>
			<g>
				<path class="st0" d="M283.9,87.6c3.4,0,6.2,2.8,6.2,6.2c0,3.4-2.8,6.1-6.2,6.1c-3.4,0-6.2-2.7-6.2-6.1
					C277.8,90.3,280.5,87.6,283.9,87.6z M283.9,99.2c3,0,5.4-2.4,5.4-5.3c0-3-2.4-5.4-5.4-5.4s-5.4,2.4-5.4,5.4
					C278.5,96.7,280.9,99.2,283.9,99.2z"/>
			</g>
			<g>
				<path class="st0" d="M298.2,88.1c0-0.2,0.2-0.3,0.3-0.3h7.1c0.2,0,0.3,0.2,0.3,0.3v1.8c0,0.2-0.2,0.3-0.3,0.3h-4.8v2.1h3.9
					c0.2,0,0.3,0.2,0.3,0.3v1.8c0,0.2-0.2,0.3-0.3,0.3h-3.9V97h4.8c0.2,0,0.3,0.2,0.3,0.3v1.8c0,0.2-0.2,0.3-0.3,0.3h-7.1
					c-0.2,0-0.3-0.2-0.3-0.3V88.1z"/>
			</g>
			<g>
				<path class="st0" d="M308.2,98.1l0.8-1.4c0.2-0.3,0.5-0.2,0.6-0.1c0.1,0,1.3,0.9,2.4,0.9c0.7,0,1.2-0.4,1.2-1
					c0-0.8-0.6-1.3-1.8-1.8c-1.5-0.6-3.3-1.8-3.3-3.8c0-1.7,1.3-3.4,3.9-3.4c1.8,0,3.2,0.9,3.7,1.3c0.2,0.1,0.2,0.4,0.1,0.6
					l-0.8,1.3c-0.1,0.2-0.4,0.3-0.6,0.3c-0.2-0.1-1.4-1-2.4-1c-0.6,0-1.1,0.4-1.1,0.8c0,0.7,0.5,1.1,1.8,1.7
					c1.3,0.5,3.4,1.6,3.4,3.9c0,1.8-1.5,3.5-4,3.5c-2.3,0-3.4-0.9-3.8-1.3C308.2,98.4,308.1,98.3,308.2,98.1z"/>
			</g>
			<g>
				<path class="st0" d="M319.4,88.1c0-0.2,0.2-0.3,0.3-0.3h7.1c0.2,0,0.3,0.2,0.3,0.3v1.8c0,0.2-0.2,0.3-0.3,0.3H322v2.1h3.9
					c0.2,0,0.3,0.2,0.3,0.3v1.8c0,0.2-0.2,0.3-0.3,0.3H322V97h4.8c0.2,0,0.3,0.2,0.3,0.3v1.8c0,0.2-0.2,0.3-0.3,0.3h-7.1
					c-0.2,0-0.3-0.2-0.3-0.3V88.1z"/>
			</g>
			<g>
				<path class="st0" d="M330,87.9c0-0.2,0.2-0.3,0.3-0.3h0.4l6.8,6.5l0,0v-6c0-0.2,0.2-0.3,0.3-0.3h2.1c0.2,0,0.3,0.2,0.3,0.3v11.5
					c0,0.2-0.2,0.3-0.3,0.3h-0.3c-0.1,0-0.2-0.1-0.3-0.1l-6.8-6.8l0,0v6.3c0,0.2-0.2,0.3-0.3,0.3h-2c-0.2,0-0.3-0.2-0.3-0.3
					L330,87.9z"/>
			</g>
			<g>
				<path class="st0" d="M349.6,87.6c1.7,0,3,0.5,4.1,1.6c0.2,0.2,0.2,0.3,0,0.5l-1.3,1.4c-0.1,0.1-0.3,0.1-0.4,0
					c-0.7-0.6-1.5-0.8-2.3-0.8c-1.9,0-3.3,1.6-3.3,3.5s1.4,3.4,3.3,3.4c0.8,0,1.7-0.3,2.3-0.8c0.1-0.1,0.3-0.1,0.4,0l1.3,1.4
					c0.1,0.1,0.1,0.3,0,0.5c-1.2,1.1-2.6,1.7-4.2,1.7c-3.4,0-6.2-2.7-6.2-6.1C343.5,90.3,346.2,87.6,349.6,87.6z"/>
			</g>
			<g>
				<path class="st0" d="M356.6,88.1c0-0.2,0.2-0.3,0.3-0.3h2.1c0.2,0,0.3,0.2,0.3,0.3v11.3c0,0.2-0.2,0.3-0.3,0.3h-2.1
					c-0.2,0-0.3-0.2-0.3-0.3V88.1z"/>
			</g>
			<g>
				<path class="st0" d="M361.4,99.2l5.3-11.5c0.1-0.1,0.2-0.2,0.3-0.2h0.2c0.1,0,0.3,0.1,0.3,0.2l5.3,11.5c0.1,0.3,0,0.4-0.3,0.4
					h-1.9c-0.3,0-0.4-0.1-0.6-0.4l-0.6-1.3h-4.7l-0.6,1.3c-0.1,0.2-0.3,0.4-0.6,0.4h-1.8C361.4,99.7,361.3,99.5,361.4,99.2z
					 M368.4,95.6l-1.3-2.8l0,0l-1.3,2.8H368.4z"/>
			</g>
			<g>
				<path class="st0" d="M375.2,88.1c0-0.2,0.2-0.3,0.3-0.3h2c0.2,0,0.3,0.2,0.3,0.3v9.1h4.1c0.2,0,0.3,0.2,0.3,0.3v1.8
					c0,0.2-0.2,0.3-0.3,0.3h-6.4c-0.2,0-0.3-0.2-0.3-0.3V88.1L375.2,88.1z"/>
			</g>
		</g>
		<g>
			<rect x="298.2" y="104.2" class="st0" width="84.1" height="1.3"/>
		</g>
	</g>
</g>
</svg>
